<svg version="1.1" id="Layer_1" xmlns="http://www.w3.org/2000/svg" x="0" y="0" viewBox="0 0 256 256" style="enable-background:new 0 0 256 256" xml:space="preserve"><style>.st0{fill:#382b73}.st3{fill:#e43d91}.st4{fill:#fede3a}.st5{fill:#e7ad27}.st6{fill:#f7cb15}.st7{fill:#fff}.st8{fill:#009add}</style><switch><g><circle class="st0" cx="128" cy="128" r="120"/><circle cx="128" cy="128" r="102.5" style="fill:#473080"/><path class="st0" d="M196.709 165.501h-1.902v-2.634a2 2 0 0 0-2-2H191.5v-55.385h1.306a2 2 0 0 0 2-2v-.634a2 2 0 0 0-2-2H191.5v-4.45a5.91 5.91 0 0 0-11.82 0v4.45h-.737a2 2 0 0 0-2 2v.634a2 2 0 0 0 2 2h.737v2.613c-2.759 3.498-8.093 6.594-15.191 9l-3.121-32.599a4 4 0 0 0-3.982-3.619h-11.039v-1.685a18.264 18.264 0 0 0-3.134-10.259c-3.297-4.881-8.881-8.09-15.215-8.09s-11.918 3.209-15.215 8.09a18.306 18.306 0 0 0-2.761 6.561 18.457 18.457 0 0 0-.373 3.698v1.685H98.613a4 4 0 0 0-3.982 3.619l-3.121 32.599c-7.098-2.406-12.432-5.501-15.191-9v-2.613h.736a2 2 0 0 0 2-2v-.634a2 2 0 0 0-2-2h-.735v-4.45a5.91 5.91 0 0 0-11.82 0v4.45h-1.306a2 2 0 0 0-2 2v.634a2 2 0 0 0 2 2H64.5v55.385h-1.306a2 2 0 0 0-2 2v2.634h-1.903a2 2 0 0 0-2 2v1.635a1 1 0 0 0 1 1h23.667a1 1 0 0 0 1-1v-1.635a2 2 0 0 0-2-2h-1.903v-2.634a2 2 0 0 0-2-2h-.735V117.61c3.215 2.893 8.187 5.453 14.423 7.507l-6.151 64.249a4 4 0 0 0 3.982 4.381h78.853a4 4 0 0 0 3.982-4.381l-6.151-64.249c6.236-2.055 11.208-4.615 14.423-7.507v43.256h-.737a2 2 0 0 0-2 2v2.634h-1.902a2 2 0 0 0-2 2v1.635a1 1 0 0 0 1 1h23.667a1 1 0 0 0 1-1V167.5a2 2 0 0 0-2-1.999z"/><g><path d="M167.426 186.748H88.574a4 4 0 0 1-3.982-4.381l10.04-104.871a4 4 0 0 1 3.982-3.619h58.774a4.001 4.001 0 0 1 3.982 3.619l10.04 104.871a4.002 4.002 0 0 1-3.984 4.381z" style="fill:#ef5a9d"/><path class="st3" d="m99.048 73.877-9.473 112.871h4.737l8.305-112.871zM156.952 73.877h-3.569l8.305 112.871h4.737z"/><path class="st4" d="M64.5 98.481h11.82v55.385H64.5z"/><path class="st5" d="M64.5 98.481h4.619v55.385H64.5z"/><path class="st6" d="M79.056 158.501H61.194v-2.634a2 2 0 0 1 2-2h13.862a2 2 0 0 1 2 2v2.634z"/><path class="st5" d="M66.809 158.501h-5.615v-2.634a2 2 0 0 1 2-2h3.615v4.634z"/><path class="st4" d="M81.959 163.135H58.291a1 1 0 0 1-1-1V160.5a2 2 0 0 1 2-2h21.667a2 2 0 0 1 2 2v1.635a.998.998 0 0 1-.999 1z"/><path class="st5" d="M64.5 163.135h-6.208a1 1 0 0 1-1-1V160.5a2 2 0 0 1 2-2H64.5v4.635z"/><path class="st6" d="M77.056 98.481H63.194a2 2 0 0 1-2-2v-.634a2 2 0 0 1 2-2h13.862a2 2 0 0 1 2 2v.634a2 2 0 0 1-2 2z"/><path class="st5" d="M66.809 98.481h-3.615a2 2 0 0 1-2-2v-.634a2 2 0 0 1 2-2h3.615v4.634zM70.41 83.487a5.91 5.91 0 0 0-5.91 5.91v4.45h11.82v-4.45a5.91 5.91 0 0 0-5.91-5.91z"/><path class="st4" d="M70.41 83.487a5.879 5.879 0 0 0-3.601 1.225 5.898 5.898 0 0 1 2.309 4.685v4.45h7.201v-4.45a5.909 5.909 0 0 0-5.909-5.91z"/><g><path transform="rotate(-180 185.59 126.174)" class="st4" d="M179.68 98.481h11.82v55.385h-11.82z"/><path transform="rotate(-180 189.191 126.174)" class="st5" d="M186.882 98.481h4.619v55.385h-4.619z"/><path class="st6" d="M176.944 158.501h17.862v-2.634a2 2 0 0 0-2-2h-13.862a2 2 0 0 0-2 2v2.634z"/><path class="st5" d="M189.191 158.501h5.615v-2.634a2 2 0 0 0-2-2h-3.615v4.634z"/><path class="st4" d="M174.041 163.135h23.667a1 1 0 0 0 1-1V160.5a2 2 0 0 0-2-2h-21.667a2 2 0 0 0-2 2v1.635a1 1 0 0 0 1 1z"/><path class="st5" d="M191.5 163.135h6.208a1 1 0 0 0 1-1V160.5a2 2 0 0 0-2-2H191.5v4.635z"/><path class="st6" d="M178.944 98.481h13.862a2 2 0 0 0 2-2v-.634a2 2 0 0 0-2-2h-13.862a2 2 0 0 0-2 2v.634a2 2 0 0 0 2 2z"/><path class="st5" d="M189.191 98.481h3.615a2 2 0 0 0 2-2v-.634a2 2 0 0 0-2-2h-3.615v4.634zM185.59 83.487a5.91 5.91 0 0 1 5.91 5.91v4.45h-11.82v-4.45a5.91 5.91 0 0 1 5.91-5.91z"/><path class="st4" d="M185.59 83.487c1.356 0 2.604.457 3.601 1.225a5.898 5.898 0 0 0-2.309 4.685v4.45h-7.201v-4.45a5.909 5.909 0 0 1 5.909-5.91z"/></g><path class="st7" d="M179.68 101.095c-6.486 8.224-27.167 14.238-51.68 14.238s-45.194-6.014-51.68-14.238v9.515c8.307 7.475 28.314 12.744 51.68 12.744s43.374-5.269 51.68-12.744v-9.515z"/><g><path class="st8" d="M109.652 75.562c0 10.133 8.215 18.348 18.348 18.348 10.134 0 18.348-8.215 18.348-18.348v-3.37c0-10.134-8.215-18.348-18.348-18.348s-18.348 8.215-18.348 18.348v3.37z"/><circle transform="rotate(-3.279 127.92 72.15)" cx="128" cy="72.192" style="fill:#1caee4" r="18.348"/><g><path class="st8" d="M122.804 80.673V68.694c0-1.726 1.955-2.727 3.355-1.717l8.309 5.99a2.117 2.117 0 0 1 0 3.435l-8.309 5.989c-1.401 1.008-3.355.008-3.355-1.718z"/><path class="st7" d="M122.804 77.84V65.861c0-1.726 1.955-2.727 3.355-1.717l8.309 5.99a2.117 2.117 0 0 1 0 3.435l-8.309 5.99c-1.401 1.008-3.355.007-3.355-1.719z"/><path d="m134.468 71.93-8.309 5.99c-1.4 1.009-3.355.009-3.355-1.717v1.638c0 1.726 1.955 2.726 3.355 1.717l8.309-5.99a2.11 2.11 0 0 0 .704-2.536 2.09 2.09 0 0 1-.704.898z" style="fill:#d1d3d4"/></g></g></g></g></switch></svg>